<svg width="572" height="587" viewBox="0 0 572 587" fill="none" xmlns="http://www.w3.org/2000/svg">
<path d="M315.271 97.4487C342.065 97.4487 363.882 75.6606 363.882 48.8377C363.882 22.0147 342.065 0.226562 315.271 0.226562C288.477 0.226562 266.66 22.0437 266.66 48.8377C266.66 75.6316 288.477 97.4487 315.271 97.4487ZM315.271 23.3747C329.276 23.3747 340.705 34.8041 340.705 48.8377C340.705 62.8712 329.276 74.3006 315.271 74.3006C301.266 74.3006 289.808 62.8712 289.808 48.8377C289.808 34.8041 301.237 23.3747 315.271 23.3747Z" fill="#E80023"/>
<path d="M507.053 273.895C458.356 244.324 402.916 264.405 357.024 300.487C346.781 287.987 335.699 275.429 323.46 263.189C300.948 240.678 276.295 220.163 252.742 204.654C265.3 165.851 270.219 124.792 257.95 96.2913C250.543 79.046 237.204 67.2983 219.438 62.2925C197.418 56.0425 177.134 58.7624 162.377 69.9314C149.935 79.3353 142.817 94.0922 142.817 110.47C142.817 128.033 153.147 143.253 169.814 150.14C185.149 156.477 201.729 153.901 212.059 143.514C216.573 139 216.573 131.679 212.059 127.165C207.545 122.651 200.225 122.651 195.711 127.165C192.065 130.84 185.236 131.477 178.697 128.757C175.717 127.541 165.994 122.564 165.994 110.47C165.994 101.297 169.669 93.4557 176.382 88.392C185.265 81.708 198.286 80.348 213.188 84.5726C224.328 87.6976 232.024 94.5263 236.741 105.435C245.827 126.529 242.21 159.688 232.372 192.414C200.746 175.284 173.112 169.729 158.384 184.457L149.704 193.137C146 196.841 139.721 208.213 131.967 224.185C131.677 224.706 131.388 225.198 131.185 225.747C93.6564 303.583 20.3346 492.096 3.29182 536.193C-2.46628 550.632 0.0221391 566.922 9.62862 576.934C15.9944 583.299 24.9643 586.627 34.3393 586.627C39.6923 586.627 45.19 585.556 50.3404 583.328C103.871 562.582 371.984 458.126 393.483 436.916L401.614 428.786C401.845 428.583 402.221 428.438 402.453 428.236C402.974 427.715 403.234 427.049 403.639 426.471C412.146 416.459 416.834 396.494 395.682 356.534C389.287 344.468 380.751 331.592 371.145 318.542C410.294 287.553 456.243 270.134 494.987 293.629C514.374 305.464 523.749 320.944 520.74 336.164C518.454 347.622 509.166 356.824 498.083 358.531C483.327 360.933 473.894 353.959 469.669 349.619C463.564 343.311 462.32 337.148 462.609 335.759C463.998 329.538 460.063 323.346 453.813 321.928C447.389 320.597 441.371 324.474 439.982 330.724C437.667 341.083 442.557 354.567 452.424 365.07C462.812 376.181 477.019 382.171 492.268 382.171C495.364 382.171 498.546 381.911 501.7 381.448C522.476 378.178 539.258 361.772 543.425 340.678C548.373 315.823 534.773 290.852 507.053 273.895ZM330.751 421.783C340.155 426.76 348.286 430.117 355.636 432.518C337.609 441.257 310.121 453.323 277.337 467.154V385.354C295.711 400.226 313.94 412.871 330.751 421.754V421.783ZM237.349 349.561C242.904 355.117 248.546 360.238 254.218 365.417V476.847C241.718 482.055 228.755 487.379 215.445 492.819V326.268C222.36 334.081 229.681 341.893 237.349 349.561ZM192.296 502.223C179.449 507.431 166.457 512.64 153.523 517.819V231.939C153.755 231.477 153.957 231.071 154.16 230.608C156.561 238.074 160.034 246.465 165.155 256.129C172.158 269.353 181.504 283.444 192.296 297.796V502.223ZM130.375 527.049C117.239 532.287 104.218 537.437 91.602 542.385V376.326C105.404 342.414 118.743 310.325 130.375 283.328V527.049ZM41.602 561.916C35.9018 564.318 29.2177 563.797 26.1506 560.759C23.4886 557.981 22.0997 551.442 24.7907 544.729C24.7907 544.729 24.8196 544.642 24.8485 544.613C37.6089 511.598 52.7999 472.883 68.4539 433.733V551.471C59.2235 555.088 50.1958 558.589 41.602 561.916ZM375.196 367.385C390.271 395.857 388.708 408.936 385.757 411.858L385.555 412.061C382.14 414.868 369.148 415.938 341.544 401.297C314.461 386.945 283.269 362.755 253.668 333.155C224.096 303.583 199.878 272.362 185.555 245.308C170.479 216.835 172.042 203.757 174.964 200.805C174.993 200.776 174.993 200.718 175.022 200.689C176.411 199.445 178.639 198.693 181.822 198.693C190.445 198.693 205.491 203.786 224.588 214.521C220.624 224.677 216.284 234.573 211.509 243.658C208.529 249.301 210.699 256.332 216.371 259.283C218.078 260.18 219.93 260.614 221.752 260.614C225.919 260.614 229.941 258.357 231.996 254.422C236.538 245.799 240.676 236.482 244.553 226.934C263.13 239.607 284.281 256.766 307.024 279.48C318.888 291.314 329.536 303.409 339.374 315.389C327.279 326.529 316.081 338.566 306.214 350.834C302.192 355.811 303.002 363.103 307.979 367.096C312.956 371.089 320.219 370.279 324.241 365.331C333.008 354.422 342.933 343.687 353.552 333.705C361.972 345.279 369.524 356.679 375.167 367.356L375.196 367.385Z" fill="#E80023"/>
<path d="M569.38 186.54L544.496 155.637L555.317 118.022C556.504 113.913 555.317 109.486 552.221 106.505C549.125 103.525 544.64 102.541 540.618 103.843L503.784 115.88L471.839 91.98C468.396 89.4048 463.824 88.9707 459.889 90.8226C455.983 92.7034 453.466 96.5807 453.35 100.921L452.048 143.658L421.232 166.633C417.875 169.121 416.139 173.259 416.689 177.426C417.239 181.592 419.988 185.122 423.865 186.656L460.96 201.442L477.221 237.148C478.986 240.938 482.603 243.514 486.741 243.861C487.088 243.861 487.406 243.89 487.754 243.89C491.544 243.89 495.132 242.038 497.273 238.884L518.396 208.184L561.133 205.377C565.416 205.088 569.235 202.426 570.971 198.49C572.707 194.555 572.1 189.926 569.38 186.54ZM511.278 185.441C507.748 185.672 504.536 187.495 502.511 190.418L489.779 208.907L480.057 187.553C478.813 184.833 476.585 182.721 473.807 181.592L451.614 172.767L470.335 158.82C473.17 156.708 474.877 153.409 474.964 149.879L475.746 123.838L494.64 137.987C497.65 140.273 501.614 140.88 505.144 139.723L526.961 132.605L520.508 155.03C519.496 158.647 520.248 162.553 522.621 165.475L537.32 183.705L511.22 185.441H511.278Z" fill="#E80023"/>
<path d="M331.88 174.735C326.324 177.86 324.299 184.92 327.453 190.475C329.565 194.266 333.5 196.407 337.551 196.407C339.461 196.407 341.428 195.944 343.193 194.931C375.138 177.049 398.228 147.825 408.211 112.611C418.193 77.3967 413.824 40.3886 395.942 8.47308C392.817 2.88859 385.699 0.863121 380.202 4.01706C374.646 7.14206 372.621 14.2022 375.774 19.7578C406.417 74.5032 386.741 144.005 331.88 174.706V174.735Z" fill="#E80023"/>
</svg>
