<svg width="64" height="64" viewBox="0 0 64 64" fill="none" xmlns="http://www.w3.org/2000/svg">
<rect y="0.000488281" width="64" height="64" rx="32" fill="#E30027"/>
<path d="M52.3126 23.1099H41.7032C41.272 23.1099 40.922 23.4599 40.922 23.8911V30.9693C40.922 31.4005 41.272 31.7505 41.7032 31.7505H43.6892C43.4907 32.0677 43.3063 32.3489 43.1673 32.5521C42.7282 33.2302 41.8501 34.563 40.261 35.2443C40.547 34.6646 40.7189 33.9896 40.7189 33.2349V32.4536C40.7189 30.1802 39.272 28.5318 37.2813 28.5318C35.2907 28.5318 33.8438 30.1818 33.8438 32.4536V33.2349C33.8438 34.3411 34.1907 35.2943 34.772 35.9864C34.247 36.1114 33.697 36.2646 33.1407 36.4489V30.4239C33.1407 30.163 33.2454 29.9083 33.4282 29.7255L36.9735 26.1786C37.2938 25.8599 37.536 25.4974 37.6845 25.1271L39.0188 22.0755L39.1235 21.8083C39.2642 21.3958 39.2595 20.9911 39.1954 20.6005L43.3345 21.2646C43.3751 21.2708 43.4173 21.2739 43.4579 21.2739C43.6204 21.2739 43.7813 21.2224 43.9157 21.1255C44.0829 21.0036 44.197 20.8208 44.2298 20.6161L45.3517 13.6271C45.4188 13.2021 45.1282 12.8005 44.7032 12.7318L34.2282 11.0505C34.0251 11.0193 33.8157 11.0677 33.647 11.188C33.4798 11.3099 33.3657 11.4927 33.3329 11.6974L32.211 18.6864C32.1423 19.1114 32.4329 19.513 32.8595 19.5818L34.3595 19.8224L34.2501 20.0068C33.9267 20.5521 33.6376 21.038 33.4532 21.3083L33.2673 21.6083C32.8501 22.2911 32.1751 23.3614 30.9423 23.9849C31.2126 23.4161 31.3751 22.7614 31.3751 22.0302V21.2489C31.3751 18.9755 29.9298 17.3271 27.9376 17.3271C25.9454 17.3271 24.5001 18.9771 24.5001 21.2489V22.0302C24.5001 22.6677 24.6235 23.2489 24.8313 23.7646C23.5548 22.9661 22.6126 21.7349 22.361 21.3193L22.3735 21.3083L21.9376 20.6489L21.9267 20.6536C21.6267 20.1771 21.2095 19.5489 20.6517 18.7083C19.7751 17.3833 18.211 17.2568 17.1157 17.8161C15.9313 18.4224 15.4048 19.6755 15.8032 20.9005L15.8126 21.1193L18.197 25.3411C18.3142 25.5474 18.5063 25.8521 18.7751 26.0989L22.4157 29.7396C22.597 29.9208 22.7017 30.1755 22.7017 30.4364V30.5927C22.7017 30.6411 22.7204 30.6833 22.7298 30.7302C21.9423 31.4302 21.4517 32.5177 21.4517 33.8271V34.6083C21.4517 35.7458 21.8142 36.7255 22.4251 37.4224C20.6923 37.8864 19.0063 38.7958 18.9173 40.1255L15.236 40.4083C15.0298 40.424 14.8376 40.5208 14.7017 40.6786C14.5673 40.8365 14.5001 41.0396 14.5157 41.2458L14.7751 44.6052C13.4876 44.8115 12.4985 45.9193 12.4985 47.2646C12.4985 48.7552 13.711 49.9677 15.2017 49.9677C16.072 49.9677 16.8376 49.5474 17.3329 48.9083L26.4798 48.2161C26.686 48.1989 26.8782 48.1036 27.0142 47.9443C27.1485 47.7864 27.2157 47.5833 27.2001 47.3755L26.6532 40.313C26.6188 39.8849 26.2345 39.5646 25.8142 39.5943L20.6142 39.9943C21.1188 39.4724 22.961 38.6239 24.9048 38.6239C26.7438 38.6239 30.4204 40.4271 30.4204 42.7958C30.4204 43.2271 30.7704 43.5771 31.2017 43.5771C31.6329 43.5771 31.9829 43.2271 31.9829 42.7958C31.9829 41.5083 31.3532 40.3958 30.4376 39.4989C30.447 39.4896 30.4595 39.4864 30.4673 39.4786C31.397 38.5083 35.2767 37.2318 36.8407 37.2318H38.1548C41.9954 37.2318 43.8642 34.3458 44.5017 33.3599C44.7126 33.0505 45.1204 32.4474 45.511 31.7302C45.7438 31.2974 46.3689 31.3724 46.7329 31.5302C46.8767 31.5927 47.5829 31.938 47.4188 32.4661L45.6188 35.7536C45.536 35.9099 45.4298 36.0521 45.3032 36.1786L41.6626 39.8193C41.1892 40.2927 40.9173 40.9505 40.9173 41.6208V45.2146C40.9173 45.6458 41.2673 45.9958 41.6985 45.9958C42.1298 45.9958 42.4798 45.6458 42.4798 45.2146V41.6208C42.4798 41.3599 42.5845 41.1068 42.7673 40.924L46.4079 37.2833C46.6438 37.0474 46.8423 36.7802 46.9939 36.4958L48.847 33.0864C48.9985 32.6302 49.0048 32.1708 48.8845 31.7458H52.3095C52.7407 31.7458 53.0907 31.3958 53.0907 30.9646V23.8864C53.0907 23.4552 52.7407 23.1052 52.3095 23.1052L52.3126 23.1099ZM15.2032 48.4068C14.5751 48.4068 14.0626 47.8943 14.0626 47.2661C14.0626 46.638 14.5751 46.1271 15.2032 46.1271C15.8313 46.1271 16.3438 46.638 16.3438 47.2661C16.3438 47.8943 15.8313 48.4068 15.2032 48.4068ZM25.5829 46.7177L17.9032 47.299C17.9032 47.288 17.9063 47.2771 17.9063 47.2661C17.9063 46.1911 17.272 45.2708 16.3626 44.8349L16.136 41.9068L25.1564 41.2161L25.5829 46.7177ZM35.4063 32.4536C35.4063 31.0427 36.1595 30.0943 37.2813 30.0943C38.4032 30.0943 39.1564 31.0427 39.1564 32.4536V33.2349C39.1564 34.6458 38.4032 35.5943 37.2813 35.5943C36.1595 35.5943 35.4063 34.6474 35.4063 33.2349V32.4536ZM34.7532 12.7177L43.686 14.1521L42.8126 19.5974L37.8532 18.8005C37.836 18.7927 37.8267 18.7771 37.8079 18.7693C37.322 18.5364 36.7532 18.4521 36.2001 18.5349L33.8782 18.1614L34.7517 12.7161L34.7532 12.7177ZM26.0626 21.2505C26.0626 19.8396 26.8157 18.8911 27.9376 18.8911C29.0595 18.8911 29.8126 19.8396 29.8126 21.2505V22.0318C29.8126 23.4427 29.0595 24.3911 27.9376 24.3911C26.8157 24.3911 26.0626 23.4427 26.0626 22.0318V21.2505ZM26.7657 34.6099C26.7657 36.0208 26.0126 36.9693 24.8907 36.9693C23.7688 36.9693 23.0157 36.0224 23.0157 34.6099V33.8286C23.0157 32.4177 23.7688 31.4693 24.8907 31.4693C26.0126 31.4693 26.7657 32.4177 26.7657 33.8286V34.6099ZM29.3423 38.3974C29.2985 38.4427 29.2767 38.4974 29.247 38.549C28.6032 38.1255 27.9095 37.788 27.2298 37.5396C27.911 36.838 28.3267 35.8177 28.3267 34.6099V33.8286C28.3267 31.5568 26.8813 29.9068 24.8892 29.9068C24.6563 29.9068 24.4345 29.9333 24.2173 29.9771C24.1235 29.4724 23.8829 28.9989 23.5188 28.6364L19.8548 24.9724C19.7517 24.8771 19.6579 24.7521 19.5579 24.5786L17.3095 20.4818V20.4739C17.0126 19.6974 17.6298 19.3099 17.8267 19.2099C18.1813 19.0286 18.9017 18.8989 19.3485 19.5739C20.0579 20.6427 20.7657 21.7099 21.0204 22.0958C21.1048 22.238 21.2188 22.4146 21.3642 22.613L21.5595 22.9052L21.5767 22.8927C22.5892 24.1739 24.5923 26.0489 27.0298 26.0489H28.7954C32.3876 26.0489 33.9376 23.5099 34.5985 22.4255L34.7517 22.1802C34.936 21.9099 35.2454 21.3911 35.5923 20.8083L35.7345 20.5708C35.8829 20.3177 36.0798 20.2005 36.2798 20.1349L37.3282 20.3036C37.5407 20.4599 37.7923 20.7521 37.6704 21.2255L36.2438 24.5255C36.1626 24.7239 36.0423 24.9052 35.8704 25.0755L32.3235 28.6224C31.8501 29.0958 31.5782 29.7521 31.5782 30.4255V36.7693C31.5782 36.8583 31.6017 36.9427 31.6298 37.0224C30.6563 37.4411 29.8079 37.9177 29.3438 38.4005L29.3423 38.3974ZM51.5313 30.188H47.5235C47.4673 30.1599 47.4188 30.1271 47.361 30.1005C46.5064 29.7286 45.6376 29.8036 44.9688 30.1896C44.9642 30.1896 44.9595 30.1864 44.9548 30.1864H42.486V24.6708H51.5329V30.1864L51.5313 30.188Z" fill="white"/>
</svg>
