<svg width="64" height="64" viewBox="0 0 64 64" fill="none" xmlns="http://www.w3.org/2000/svg">
<rect y="0.000488281" width="64" height="64" rx="32" fill="#E30027"/>
<path d="M48.8906 31.6177C48.0328 29.5021 46.325 27.8458 44.2031 27.0786C42.2406 26.3677 40.1344 26.4099 38.2672 27.1958C37.4141 27.5552 36.6547 28.0536 36.0125 28.6677C35.9094 27.8771 35.6734 27.0989 35.3109 26.3599C34.3828 24.4692 32.675 22.9864 30.6297 22.2927C30.5203 22.2552 30.4062 22.2489 30.2953 22.2161C30.9547 20.5755 30.8672 17.5989 30.8141 16.6255C30.8141 13.2083 28.275 10.5317 25.0328 10.5317C21.7906 10.5317 19.2516 13.2083 19.2516 16.6255V18.5005C19.2516 20.9614 19.8437 22.7771 21.0109 23.9005C21.2219 24.1021 21.4344 24.2583 21.6453 24.3942C16.35 26.2739 13.3625 31.9974 14.9547 37.4708C15.6594 39.8958 17.1656 41.9474 19.2359 43.3411V52.7052C19.2359 53.1364 19.5859 53.4864 20.0172 53.4864C20.4484 53.4864 20.7984 53.1364 20.7984 52.7052V44.1958C22.2031 44.838 23.7031 45.1833 25.2219 45.1833C25.4813 45.1833 25.7406 45.1474 26 45.1286L28.4312 48.7505C28.5781 48.9708 28.8219 49.0974 29.0797 49.0974C29.1219 49.0974 29.1672 49.0942 29.2094 49.0864C29.3188 49.0677 30.8391 48.8067 33 48.2286V50.0817C33 50.513 33.35 50.863 33.7812 50.863C34.2125 50.863 34.5625 50.513 34.5625 50.0817V47.7849C35.7734 47.4208 37.1016 46.9692 38.45 46.4286C39.0812 46.8677 39.8453 47.1286 40.6719 47.1286H41.9219C44.0766 47.1286 45.8281 45.3771 45.8281 43.2224C45.8281 42.8896 45.7734 42.5739 45.6953 42.2646C46.9562 41.2052 47.7797 40.1755 48.4828 38.7505C49.6437 36.3692 49.7891 33.8364 48.8906 31.6208V31.6177ZM20.8125 18.5005V16.6255C20.8125 14.0849 22.6656 12.0942 25.0313 12.0942C27.3969 12.0942 29.25 14.0849 29.2516 16.6677C29.3766 18.9896 29.1375 21.4208 28.7469 21.8817C28.7062 21.8864 28.6719 21.9067 28.6344 21.9177C27.0969 21.8083 25.5328 22.1177 24.1484 22.8864C23.8688 23.0427 23.6031 23.2192 23.3453 23.4067C23.0672 23.3614 22.5531 23.2302 22.0641 22.7474C21.2453 21.938 20.8125 20.4692 20.8125 18.5021V18.5005ZM20.8344 42.4896C18.6906 41.3161 17.1344 39.3786 16.4531 37.0333C15.2422 32.8661 17.1328 28.5208 20.7594 26.488C20.4203 27.1708 20.1547 27.9114 19.9719 28.7021C19.5984 30.3521 19.6734 32.2552 20.2328 34.4739C20.5297 35.1786 21.5969 37.5161 22.8484 38.0208C22.9062 38.0442 22.9656 38.0599 23.025 38.0692C23.0578 38.0739 26.3172 38.5599 27.8078 39.2708C29.05 39.8536 29.1625 40.8521 29.1187 41.3942C29.0484 42.2708 28.4937 43.0505 27.7969 43.2489C25.45 43.9333 22.9781 43.6646 20.8344 42.4896ZM41.9219 45.563H40.6719C39.3797 45.563 38.3281 44.5114 38.3281 43.2192C38.3281 41.9271 39.3797 40.8755 40.6719 40.8755H41.9219C43.2141 40.8755 44.2656 41.9271 44.2656 43.2192C44.2656 44.5114 43.2141 45.563 41.9219 45.563ZM47.0812 38.0599C46.5312 39.1755 45.9031 39.9849 44.9766 40.8114C44.2609 39.9052 43.1656 39.3114 41.9234 39.3114H40.6734C38.5188 39.3114 36.7672 41.063 36.7672 43.2177C36.7672 43.938 36.9766 44.6067 37.3187 45.1864C33.8984 46.4974 30.6469 47.2114 29.4422 47.4505L27.7047 44.8646C27.8797 44.8224 28.0578 44.8021 28.2312 44.7505C29.5484 44.3771 30.5547 43.0474 30.6781 41.5208C30.8062 39.9333 29.9828 38.563 28.4766 37.8583C26.9375 37.1239 24.0063 36.6411 23.3734 36.5411C22.9219 36.2739 22.1359 34.9599 21.7125 33.9833C21.25 32.1177 21.1781 30.4583 21.4969 29.0505C22.1328 26.2958 23.7031 24.9208 24.9078 24.2521C26.4922 23.3739 28.4406 23.1927 30.125 23.7708C31.7828 24.3317 33.1609 25.5271 33.9078 27.0474C34.5938 28.4442 34.6969 30.013 34.2 31.4646C34.0594 31.8708 34.275 32.313 34.6797 32.4552C35.0812 32.5942 35.5281 32.3896 35.6734 31.9849C36.2266 30.4614 37.3625 29.2708 38.8766 28.6333C40.3781 28.0005 42.0828 27.9692 43.6734 28.5458C45.3531 29.1536 46.7641 30.5208 47.4437 32.2021C47.9594 33.4755 48.3172 35.5255 47.0828 38.0583L47.0812 38.0599Z" fill="white"/>
</svg>
