<svg width="64" height="64" viewBox="0 0 64 64" fill="none" xmlns="http://www.w3.org/2000/svg">
<rect y="0.000488281" width="64" height="64" rx="32" fill="#E30027"/>
<path d="M50.5766 19.9599C50.561 19.7537 50.4656 19.5615 50.3078 19.4255C50.15 19.2912 49.9469 19.2208 49.7406 19.238L42.9156 19.738C42.875 19.624 42.8188 19.5146 42.7391 19.4302C42.5781 19.2615 42.3485 19.1724 42.1172 19.1896L12.711 21.3146C12.2813 21.3458 11.9578 21.7193 11.9891 22.1505L13.4735 42.6958C13.5031 43.1068 13.8453 43.4208 14.2516 43.4208C14.2703 43.4208 14.2891 43.4208 14.3094 43.4208L43.7156 41.2974C44.0656 41.2708 44.3344 41.0146 44.4094 40.6896L51.2625 40.188C51.6922 40.1552 52.0156 39.7818 51.986 39.3521L50.5797 19.9615L50.5766 19.9599ZM14.9735 41.8037L13.6016 22.8177L41.4625 20.8037L41.8297 25.913C40.3656 26.4849 39.4016 28.3287 39.5485 30.4927C39.6453 31.9162 40.2453 33.2349 41.1531 34.0208C41.5563 34.3693 41.9953 34.599 42.4547 34.7052L42.8203 39.7958L14.9719 41.8068L14.9735 41.8037ZM44.3406 39.1255L43.9672 33.9271C43.9516 33.7193 43.8547 33.5271 43.6969 33.3912C43.5391 33.2568 43.3328 33.1927 43.1281 33.2037C42.6938 33.2443 42.3891 33.0193 42.1766 32.8365C41.5766 32.3177 41.1766 31.4021 41.1078 30.3833C40.9985 28.7833 41.7344 27.3693 42.7156 27.2943C43.1438 27.2615 43.4656 26.888 43.436 26.4599L43.0641 21.2927L49.0719 20.8521L50.3656 38.6849L44.3391 39.1255H44.3406Z" fill="white"/>
<path d="M37.8938 30.7287L37.0531 30.4083L37.9266 29.3099L37.9219 29.3068C37.9719 29.2615 38.0156 29.213 38.0469 29.1724C38.2203 28.9412 38.211 28.6193 38.025 28.3974C37.8391 28.174 37.525 28.1099 37.2672 28.238C37.2578 28.2427 37.1235 28.3099 37.1141 28.3146C36.2063 28.8255 35.1891 29.1162 33.9985 29.2037C32.65 29.3083 31.2906 29.1037 30 28.9115C28.8391 28.7349 27.8781 28.6021 27.05 28.6724C26.7922 28.6896 26.5516 28.7287 26.3203 28.7865C25.7281 28.9474 25.4094 29.4599 25.3938 29.9333L25.3422 29.9271C24.1266 29.7474 22.6094 29.5208 21.0469 29.6255C19.6735 29.7271 18.4844 30.0708 17.3766 30.6896C17.1547 30.8005 17.0203 31.0302 17.0313 31.2771C17.0422 31.524 17.1969 31.7412 17.4281 31.8302L18.275 32.1599L17.3219 33.3412C17.125 33.5708 17.1766 33.8787 17.3688 34.113C17.4828 34.2521 17.6672 34.3193 17.8547 34.3193C17.9797 34.3193 18.1063 34.288 18.2125 34.2287C19.1219 33.7177 20.1406 33.4255 21.3281 33.338C22.6797 33.2365 24.0438 33.438 25.3281 33.6287C26.4906 33.8052 27.4453 33.9287 28.2781 33.8693C28.536 33.8505 28.7735 33.813 28.9969 33.7583C29.2328 33.699 29.9531 33.5177 29.9531 32.8302L29.9391 32.6208C29.9547 32.6224 29.9719 32.6255 29.9875 32.6287C31.1375 32.799 32.711 33.0318 34.2813 32.9318C35.6563 32.8302 36.8453 32.4865 37.9531 31.8677C38.1766 31.7568 38.311 31.5255 38.2985 31.2771C38.286 31.0302 38.1297 30.813 37.8969 30.724L37.8938 30.7287ZM34.1938 31.6896C32.8625 31.7802 31.586 31.6083 30.1797 31.399C29.8875 31.3505 29.6125 31.3177 29.3375 31.2849C29.1531 31.2677 28.9688 31.324 28.8344 31.4521C28.7 31.5802 28.6297 31.7599 28.6406 31.9458L28.6813 32.5521C28.5297 32.588 28.3657 32.613 28.1844 32.6255C27.4813 32.6818 26.5578 32.5552 25.4313 32.3849C24.4063 32.2318 23.2703 32.063 22.086 32.063C21.8047 32.063 21.5203 32.0724 21.2344 32.0943C20.7188 32.1318 20.2297 32.2052 19.7563 32.3162L19.7844 32.2818C19.9094 32.1271 19.9516 31.9224 19.9016 31.7287C19.85 31.5365 19.7094 31.3802 19.525 31.3068L19.2891 31.2146C19.8594 31.0349 20.4719 30.9208 21.1344 30.8724C22.5578 30.7787 24.0016 30.9927 25.1594 31.1646L25.9922 31.2771C26.1656 31.2927 26.3594 31.2365 26.4938 31.1083C26.6281 30.9802 26.6985 30.799 26.686 30.6146L26.6375 29.9958C26.7906 29.9568 26.9578 29.9318 27.1422 29.9193C27.8453 29.8599 28.7703 29.9896 29.9063 30.1615C31.1719 30.3505 32.6063 30.5615 34.0922 30.4505C34.6203 30.4115 35.1203 30.3365 35.6016 30.2224L35.5438 30.2974C35.4188 30.4537 35.3766 30.6583 35.4297 30.8505C35.4813 31.0427 35.6235 31.199 35.8094 31.2708L36.0219 31.3505C35.4578 31.5271 34.8516 31.6396 34.1953 31.6865L34.1938 31.6896Z" fill="white"/>
<path d="M41.375 15.9849C41.575 15.9849 41.775 15.9083 41.9281 15.7568L43.4906 14.1943C43.7953 13.8896 43.7953 13.3943 43.4906 13.0896C43.186 12.7849 42.6906 12.7849 42.386 13.0896L40.8235 14.6521C40.5188 14.9568 40.5188 15.4521 40.8235 15.7568C40.9766 15.9099 41.175 15.9849 41.375 15.9849Z" fill="white"/>
<path d="M22.8531 46.6818L21.2906 48.2443C20.986 48.549 20.986 49.0443 21.2906 49.349C21.4438 49.5021 21.6438 49.5771 21.8438 49.5771C22.0438 49.5771 22.2438 49.5005 22.3969 49.349L23.9594 47.7865C24.2641 47.4818 24.2641 46.9865 23.9594 46.6818C23.6547 46.3771 23.1578 46.3771 22.8531 46.6818Z" fill="white"/>
<path d="M38.2219 48.224C37.9656 47.8755 37.4781 47.8021 37.1297 48.0599C36.7828 48.3146 36.7078 48.8052 36.9656 49.1521L38.2781 50.9349C38.4313 51.1427 38.6672 51.2521 38.9063 51.2521C39.0688 51.2521 39.2297 51.2037 39.3703 51.099C39.7172 50.8443 39.7922 50.3537 39.5344 50.0068L38.2219 48.224Z" fill="white"/>
<path d="M18.0469 16.3755C18.1797 16.3755 18.3156 16.3412 18.4391 16.2693L19.7828 15.488C20.1547 15.2708 20.2828 14.7927 20.0656 14.4193C19.8469 14.0458 19.3703 13.9193 18.9969 14.1365L17.6531 14.9177C17.2813 15.1349 17.1531 15.613 17.3703 15.9865C17.5156 16.2365 17.7766 16.3755 18.0469 16.3755Z" fill="white"/>
<path d="M30.4813 11.5427C30.6344 11.7505 30.8719 11.8599 31.111 11.8599C31.2719 11.8599 31.4344 11.8099 31.5735 11.7068C31.9203 11.4505 31.9953 10.9615 31.7375 10.6146L30.425 8.83334C30.1672 8.48646 29.6797 8.41146 29.3328 8.66928C28.986 8.92553 28.911 9.41459 29.1688 9.76146L30.4813 11.5427Z" fill="white"/>
<path d="M31.6922 52.9927L29.6922 53.899C29.3 54.0755 29.125 54.5396 29.3031 54.9318C29.4344 55.2208 29.7188 55.3912 30.0156 55.3912C30.1235 55.3912 30.2328 55.3677 30.3375 55.3209L32.3375 54.4146C32.7297 54.238 32.9047 53.774 32.7266 53.3818C32.5485 52.9896 32.0844 52.8146 31.6922 52.9927Z" fill="white"/>
</svg>
