<svg width="72" height="50" viewBox="0 0 72 50" fill="none" xmlns="http://www.w3.org/2000/svg">
<g clip-path="url(#clip0_71_8462)">
<path d="M0.772705 0.133682V35.7754H13.2059V49.8663H71.2272V33.2888H62.9385V14.2246H42.2166V0.133682H0.772705Z" fill="#3B73AE"/>
<path d="M27.2967 34.9465C27.2967 35.4043 26.9256 35.7754 26.4678 35.7754C26.0101 35.7754 25.639 35.4043 25.639 34.9465C25.639 34.4887 26.0101 34.1176 26.4678 34.1176C26.9256 34.1176 27.2967 34.4887 27.2967 34.9465Z" fill="white"/>
<path d="M22.9865 42.2075C22.9865 42.6634 22.9119 43.2187 22.282 43.2187C21.6521 43.2187 21.594 42.7214 21.594 42.307V37.7813H23.4839V36.8529H21.594V35.0377L20.301 35.4853V36.8529H19.0079V37.7813H20.301V41.8676C20.2771 42.3057 20.3219 42.7448 20.4336 43.169C20.5182 43.3653 20.6442 43.5409 20.803 43.684C20.9618 43.8271 21.1496 43.9341 21.3537 43.9979C21.6202 44.0883 21.9014 44.1277 22.1825 44.1139C22.4856 44.1114 22.7859 44.0553 23.0694 43.9481C23.3247 43.8159 23.5422 43.6211 23.7017 43.3819C23.8611 43.1427 23.9573 42.867 23.9812 42.5805C23.989 42.4563 23.989 42.3317 23.9812 42.2075V42.1412H22.9948L22.9865 42.2075Z" fill="white"/>
<path fill-rule="evenodd" clip-rule="evenodd" d="M32.3529 36.6043C31.8602 36.5765 31.3674 36.6547 30.9076 36.8337C30.4478 37.0127 30.0318 37.2883 29.6876 37.6419C29.3435 37.9955 29.0792 38.4188 28.9127 38.8833C28.7462 39.3477 28.6813 39.8425 28.7224 40.3342C28.7041 41.2592 28.9959 42.1638 29.5513 42.9037C29.8635 43.3232 30.2761 43.6575 30.751 43.8762C31.226 44.0949 31.7483 44.1909 32.27 44.1553C34.7069 44.1553 35.7927 42.2821 35.7927 40.4171C35.7927 38.5521 34.9058 36.6043 32.3529 36.6043ZM30.4879 38.5438C30.6791 38.2474 30.9436 38.0055 31.2559 37.8413C31.5681 37.6772 31.9174 37.5966 32.27 37.6072C34.2096 37.6072 34.4251 39.5136 34.4251 40.3342C34.4481 40.9704 34.3052 41.6017 34.0106 42.166C33.8345 42.4768 33.5825 42.7379 33.2781 42.9249C32.9737 43.1119 32.6268 43.2187 32.27 43.2353C31.9433 43.2286 31.6228 43.1448 31.3347 42.9907C31.0466 42.8365 30.7991 42.6165 30.6122 42.3484C30.2312 41.7737 30.0532 41.088 30.1066 40.4005C30.0803 39.7705 30.2113 39.1437 30.4879 38.577V38.5438Z" fill="white"/>
<path d="M27.2967 36.8529H24.8101V37.7813H26.0037V43.0861H25.0256V44.0642H28.3991V43.0861H27.2967V36.8529Z" fill="white"/>
<path fill-rule="evenodd" clip-rule="evenodd" d="M50.4307 37.2757C49.8229 36.8429 49.0963 36.6085 48.3502 36.6043C47.7637 36.5903 47.1831 36.7251 46.6628 36.9961C46.1424 37.2671 45.6992 37.6656 45.3745 38.1543C44.9852 38.8409 44.7876 39.6196 44.8026 40.4088C44.8026 42.8043 46.0542 44.1222 48.317 44.1222C50.2152 44.1222 51.1767 43.1193 51.4833 42.166V42.108H50.2483V42.1743C50.09 42.4764 49.8515 42.729 49.5591 42.9044C49.2667 43.0799 48.9316 43.1714 48.5906 43.169C48.2674 43.2124 47.9385 43.1737 47.6342 43.0563C47.33 42.939 47.0602 42.7468 46.8499 42.4976C46.4241 42.011 46.1758 41.3945 46.1454 40.7487H51.674V40.4917C51.6776 40.0202 51.6248 39.5499 51.5165 39.0909C51.3884 38.3735 51.0021 37.7279 50.4307 37.2757ZM48.317 37.5741C48.5947 37.5889 48.8668 37.6584 49.1176 37.7785C49.3684 37.8987 49.593 38.0672 49.7786 38.2743C49.9642 38.4814 50.107 38.7232 50.199 38.9856C50.291 39.2481 50.3303 39.5261 50.3146 39.8037H46.1702C46.1678 39.2259 46.3906 38.6698 46.7914 38.2535C47.1922 37.8372 47.7395 37.5935 48.317 37.5741Z" fill="white"/>
<path d="M43.3438 39.1489C43.3634 38.746 43.3158 38.3426 43.2029 37.9553C43.0477 37.5155 42.7471 37.1419 42.3507 36.8962C41.9542 36.6505 41.4858 36.5475 41.0229 36.6043C40.5788 36.5662 40.134 36.6701 39.7527 36.901C39.3713 37.1319 39.0731 37.4778 38.901 37.889V36.8529H36.4144V37.7813H37.5997V43.0861H36.4144V44.0642H40.02V43.0861H38.901V40.3094C38.8539 39.698 38.9534 39.0842 39.1911 38.519C39.3213 38.2472 39.5252 38.0174 39.7796 37.8559C40.0681 37.6796 40.4036 37.5957 40.7411 37.6155C41.6943 37.6155 42.117 38.146 42.117 39.4805V44.0642H44.5125V43.0861H43.3438V39.1489Z" fill="white"/>
<path d="M59.0924 39.1489C59.1121 38.746 59.0645 38.3426 58.9515 37.9553C58.7964 37.5155 58.4957 37.1419 58.0993 36.8962C57.7029 36.6505 57.2345 36.5475 56.7716 36.6043C56.3274 36.5662 55.8827 36.6701 55.5013 36.901C55.12 37.1319 54.8218 37.4778 54.6497 37.889V36.8529H52.163V37.7813H53.3483V43.0861H52.163V44.0642H55.7686V43.0861H54.6497V40.3094C54.6026 39.698 54.702 39.0842 54.9398 38.519C55.0699 38.2472 55.2738 38.0174 55.5283 37.8559C55.8168 37.6796 56.1523 37.5957 56.4898 37.6155C57.443 37.6155 57.8657 38.146 57.8657 39.4805V44.0642H60.2612V43.0861H59.0924V39.1489Z" fill="white"/>
<path d="M48.5492 25.431L50.6628 28.9952H51.4668V29.9733H49.751L47.6042 26.2102L46.3692 27.3706V28.9952H47.4219V29.9733H44.1478V28.9952H45.0845V21.0546H43.8743V20.1345H46.3692V26.1687L48.8476 23.6904H48.0684V22.762H51.3342V23.6904H50.2898L48.5492 25.431Z" fill="white"/>
<path d="M23.5171 25.6714H23.716C24.8598 25.8289 26.4679 26.1107 26.4679 27.7685C26.4474 28.2312 26.2981 28.679 26.0368 29.0615C25.8073 29.4074 25.4874 29.6838 25.1119 29.8606C24.7363 30.0374 24.3195 30.1079 23.9066 30.0644C23.4769 30.1259 23.0386 30.0606 22.6455 29.8766C22.2524 29.6925 21.9215 29.3977 21.6935 29.0283V29.9733H20.6657V27.8431H21.7764C21.8447 28.2127 22.0562 28.5404 22.3649 28.7548C22.7309 29.0254 23.1783 29.1628 23.6331 29.1444C23.8206 29.1734 24.0122 29.1611 24.1944 29.1083C24.3766 29.0555 24.5451 28.9635 24.688 28.8387C24.831 28.714 24.9449 28.5595 25.0218 28.386C25.0987 28.2126 25.1368 28.0245 25.1334 27.8348C25.1334 26.9776 24.2975 26.8662 23.5547 26.7672L23.5419 26.7655L23.2518 26.7241C22.0334 26.55 20.7652 26.235 20.7652 24.685C20.7748 24.2037 20.9278 23.7362 21.2045 23.3423C21.4831 23.0316 21.8333 22.7936 22.2248 22.6492C22.6163 22.5047 23.0371 22.4581 23.4508 22.5134C23.7889 22.4988 24.1255 22.5667 24.4316 22.7111C24.7377 22.8555 25.0041 23.0721 25.208 23.3423V22.762H26.1943V24.7431H25.1251V24.6602C25.0959 24.4298 25.0028 24.2122 24.8563 24.032C24.7098 23.8518 24.5158 23.7162 24.2962 23.6406C24.0419 23.5559 23.7767 23.5085 23.5088 23.4997C22.7711 23.4997 22.0499 23.8147 22.0499 24.7016C22.0507 24.8124 22.0755 24.9217 22.1227 25.0219C22.17 25.1221 22.2385 25.2108 22.3235 25.2818C22.69 25.493 23.0965 25.6257 23.5171 25.6714Z" fill="white"/>
<path d="M18.3117 23.8644C18.4207 24.2525 18.4682 24.6552 18.4526 25.058V28.9952H19.5965V29.9733H17.201V25.3896C17.201 24.0551 16.7783 23.5246 15.8251 23.5246C15.4876 23.5048 15.1521 23.5887 14.8636 23.765C14.6078 23.9273 14.4014 24.1567 14.2668 24.4281C14.0316 24.9939 13.9349 25.6077 13.985 26.2184V28.9952H15.1122V29.9733H11.7967V28.9952H12.7334V23.6904H11.5481V22.762H13.985V23.765C14.1637 23.3556 14.4681 23.0137 14.854 22.7887C15.2399 22.5637 15.6874 22.4672 16.1318 22.5134C16.5943 22.4597 17.0613 22.5639 17.4571 22.8092C17.8528 23.0545 18.154 23.4264 18.3117 23.8644Z" fill="white"/>
<path fill-rule="evenodd" clip-rule="evenodd" d="M42.1419 23.1848C41.5341 22.752 40.8075 22.5176 40.0615 22.5134C39.4752 22.5009 38.8952 22.6364 38.3751 22.9073C37.855 23.1782 37.4116 23.5758 37.0858 24.0634C36.6957 24.7527 36.4982 25.5343 36.5139 26.3262C36.5139 28.7134 37.7655 30.0313 40.0283 30.0313C41.9264 30.0313 42.8879 29.0283 43.1946 28.0751V28.0171H41.9596V28.0834C41.8002 28.3852 41.5617 28.638 41.2697 28.8147C40.9777 28.9913 40.6431 29.0853 40.3018 29.0864C39.9789 29.126 39.6511 29.0855 39.3475 28.9684C39.0439 28.8513 38.7739 28.6612 38.5612 28.415C38.1359 27.9248 37.8877 27.3059 37.8566 26.6578H43.3853V26.4008C43.3889 25.9293 43.336 25.459 43.2278 25C43.0996 24.2826 42.7134 23.637 42.1419 23.1848ZM40.0283 23.4832C40.306 23.498 40.5781 23.5675 40.8289 23.6876C41.0797 23.8078 41.3043 23.9763 41.4899 24.1834C41.6754 24.3905 41.8183 24.6323 41.9103 24.8947C42.0023 25.1572 42.0416 25.4352 42.0259 25.7128H37.8815C37.879 25.135 38.1018 24.5789 38.5027 24.1626C38.9035 23.7463 39.4507 23.5026 40.0283 23.4832Z" fill="white"/>
<path fill-rule="evenodd" clip-rule="evenodd" d="M32.4026 22.5134C31.8892 22.4922 31.38 22.6143 30.932 22.8661C30.4841 23.1179 30.1151 23.4894 29.8663 23.939V22.762H27.6946V23.6904H28.5732V31.4818H27.363V32.4599H31.0764V31.4818H29.8663V28.8294C30.1305 29.2412 30.501 29.5741 30.9386 29.793C31.3763 30.0118 31.8649 30.1084 32.3529 30.0727C32.8785 30.0703 33.3945 29.9306 33.8495 29.6675C34.3046 29.4043 34.683 29.0269 34.9473 28.5725C35.3457 27.8771 35.5464 27.086 35.5275 26.2848C35.5248 25.5552 35.3665 24.8347 35.0633 24.1711C34.8393 23.6583 34.4652 23.2253 33.9902 22.9294C33.5152 22.6334 32.9617 22.4884 32.4026 22.5134ZM32.0876 23.4666C32.4058 23.4651 32.7191 23.5451 32.9977 23.6988C33.2762 23.8526 33.5108 24.0751 33.6791 24.3452C34.0267 24.9636 34.1933 25.6673 34.1598 26.3759C34.1598 28.3818 32.9911 29.0946 31.9882 29.0946C31.6584 29.0946 31.3338 29.0119 31.0442 28.8541C30.7546 28.6963 30.5092 28.4683 30.3304 28.1912C29.993 27.6025 29.8319 26.9293 29.8663 26.2516C29.825 25.6197 29.9752 24.9899 30.2973 24.4446C30.4838 24.1413 30.7483 23.8936 31.0633 23.7274C31.3782 23.5612 31.732 23.4826 32.0876 23.4997V23.4666Z" fill="white"/>
<path d="M7.40369 22.762H9.89032V28.9952H10.7938V29.9733H7.59433V28.9952H8.59727V23.6904H7.40369V22.762Z" fill="white"/>
<path d="M9.06146 21.6845C9.51924 21.6845 9.89034 21.3134 9.89034 20.8556C9.89034 20.3978 9.51924 20.0267 9.06146 20.0267C8.60369 20.0267 8.23259 20.3978 8.23259 20.8556C8.23259 21.3134 8.60369 21.6845 9.06146 21.6845Z" fill="white"/>
<path d="M9.51734 9.95588L11.0508 10.5112C11.6725 10.6714 12.2467 10.9784 12.7251 11.4064C12.9521 11.6461 13.1291 11.9286 13.2458 12.2374C13.3625 12.5462 13.4166 12.8752 13.4048 13.2051C13.4298 13.7021 13.2995 14.1946 13.0318 14.6142C12.7332 15.0892 12.3107 15.4739 11.8097 15.7265C11.3087 15.9792 10.7482 16.0904 10.1887 16.0481C9.71936 16.0874 9.24817 15.9978 8.82602 15.7889C8.40386 15.58 8.04677 15.2598 7.79328 14.8628V15.8824H6.57483V12.8238H7.81814V12.8735C7.87044 13.4413 8.1285 13.9705 8.54373 14.3613C8.95897 14.7521 9.50274 14.9776 10.0727 14.9955C10.3295 15.0215 10.589 14.9936 10.8345 14.9137C11.0799 14.8338 11.306 14.7035 11.4984 14.5313C11.6545 14.3718 11.7769 14.1824 11.8581 13.9744C11.9393 13.7665 11.9776 13.5443 11.9708 13.3211C11.9708 12.3679 11.4238 12.0861 10.5286 11.738L8.87082 11.1329C7.56119 10.6438 6.63285 10.1465 6.63285 8.59652C6.59472 8.01619 6.77508 7.44258 7.13847 6.9885C7.44643 6.62101 7.83863 6.33337 8.28169 6.15009C8.72475 5.96681 9.20554 5.8933 9.68312 5.93583C10.0928 5.89073 10.5072 5.94818 10.8892 6.10299C11.2712 6.2578 11.6087 6.50513 11.8714 6.82273V6.04358H13.0981V8.87005H11.8382V8.81203C11.8475 8.54552 11.8 8.28008 11.6989 8.03331C11.5978 7.78654 11.4454 7.56408 11.2518 7.38067C11.0582 7.19727 10.8279 7.05711 10.576 6.9695C10.3241 6.88188 10.0565 6.8488 9.79087 6.87246C9.57384 6.84911 9.35432 6.87186 9.14669 6.93923C8.93906 7.0066 8.74801 7.11707 8.58603 7.26339C8.42405 7.40972 8.29481 7.58861 8.20676 7.78835C8.11871 7.98809 8.07384 8.20418 8.0751 8.42246C8.07519 8.62734 8.1197 8.82976 8.20555 9.01579C8.29141 9.20181 8.41657 9.36701 8.57242 9.5C8.86681 9.69137 9.18433 9.84456 9.51734 9.95588Z" fill="white"/>
<path d="M33.0989 6.04358V14.9043H34.2427V15.8823H30.6123V14.9043H31.8058V6.96363H30.6123V6.04358H33.0989Z" fill="white"/>
<path fill-rule="evenodd" clip-rule="evenodd" d="M19.1406 8.42246C18.6272 8.40129 18.118 8.52344 17.67 8.77523C17.2221 9.02702 16.853 9.39851 16.6042 9.84813V8.67112H14.4326V9.59947H15.3112V17.3909H14.101V18.369H17.8144V17.3909H16.6042V14.7385C16.8685 15.1503 17.2389 15.4832 17.6766 15.702C18.1143 15.9209 18.6028 16.0175 19.0909 15.9818C19.6162 15.9778 20.1315 15.8374 20.5862 15.5744C21.041 15.3114 21.4197 14.9349 21.6852 14.4816C22.0837 13.7862 22.2843 12.9951 22.2655 12.1939C22.2638 11.4642 22.1055 10.7434 21.8013 10.0802C21.5773 9.56735 21.2032 9.1344 20.7282 8.83845C20.2532 8.54251 19.6997 8.39747 19.1406 8.42246ZM18.8256 9.37567C19.1438 9.37419 19.4571 9.45415 19.7356 9.60794C20.0142 9.76173 20.2488 9.98423 20.4171 10.2543C20.766 10.8722 20.9327 11.5763 20.8978 12.285C20.8978 14.2909 19.7291 15.0037 18.7262 15.0037C18.3963 15.0037 18.0718 14.921 17.7822 14.7632C17.4926 14.6054 17.2472 14.3774 17.0684 14.1003C16.731 13.5116 16.5698 12.8383 16.6042 12.1607C16.563 11.5287 16.7132 10.899 17.0352 10.3537C17.2218 10.0504 17.4863 9.80272 17.8012 9.63651C18.1162 9.4703 18.4699 9.39167 18.8256 9.40882V9.37567Z" fill="white"/>
<path fill-rule="evenodd" clip-rule="evenodd" d="M26.7994 8.4639C27.542 8.45837 28.2682 8.68117 28.8799 9.10214C29.4497 9.55228 29.8357 10.1947 29.9657 10.9091C30.0729 11.3682 30.1258 11.8384 30.1232 12.3099V12.5668H24.5946C24.6156 13.2271 24.8646 13.8597 25.2992 14.3572C25.5095 14.6064 25.7792 14.7986 26.0835 14.9159C26.3877 15.0333 26.7166 15.072 27.0398 15.0286C27.3803 15.0283 27.7143 14.9356 28.0062 14.7605C28.2981 14.5853 28.5371 14.3342 28.6976 14.034V13.9676H29.9326V14.0257C29.6259 14.9789 28.6644 15.9818 26.7663 15.9818C24.5034 15.9818 23.2518 14.6639 23.2518 12.2684C23.2369 11.4792 23.4344 10.7005 23.8238 10.0139C24.1485 9.52523 24.5917 9.12677 25.112 8.85573C25.6324 8.58468 26.2129 8.44988 26.7994 8.4639ZM27.5662 9.60208C27.3155 9.4828 27.0436 9.4143 26.7663 9.40053C26.1895 9.41782 25.6422 9.65973 25.2412 10.0747C24.8402 10.4897 24.6171 11.0448 24.6195 11.6219H28.7639C28.7795 11.3447 28.7402 11.0671 28.6481 10.8051C28.556 10.5432 28.413 10.302 28.2273 10.0955C28.0417 9.88906 27.817 9.72136 27.5662 9.60208Z" fill="white"/>
</g>
<defs>
<clipPath id="clip0_71_8462">
<rect width="70.4545" height="50" fill="white" transform="translate(0.772705)"/>
</clipPath>
</defs>
</svg>
