<?xml version="1.0" encoding="UTF-8"?><svg id="b" xmlns="http://www.w3.org/2000/svg" viewBox="0 0 44.223 50"><defs><style>.d{fill:#e30027;}.d,.e,.f{stroke-width:0px;}.e{fill:#000;}.f{fill:#fff;}</style></defs><g id="c"><circle class="d" cx="22.11" cy="25.105" r="16.836"/><path class="f" d="M12.076,21.962h-.035l-2.239.997-.507-2.344,3.236-1.434h2.589v11.37h-3.044v-8.589Z"/><path class="f" d="M19.293,24.726c-1.032-.56-1.557-1.469-1.557-2.466,0-1.994,1.819-3.271,4.198-3.271,2.869,0,3.971,1.609,3.971,2.974,0,.98-.542,1.907-1.557,2.449v.035c.98.367,2.012,1.259,2.012,2.781,0,2.099-1.749,3.516-4.6,3.516-3.114,0-4.39-1.714-4.39-3.201,0-1.347.752-2.256,1.924-2.781v-.035ZM23.141,27.437c0-.822-.647-1.382-1.487-1.592-.665.175-1.084.7-1.084,1.399,0,.682.525,1.364,1.329,1.364.735,0,1.242-.507,1.242-1.172ZM20.692,22.172c0,.612.612,1.067,1.364,1.312.455-.105.91-.612.91-1.172,0-.63-.35-1.224-1.155-1.224-.752,0-1.119.507-1.119,1.085Z"/><path class="f" d="M32.763,21.245v3.691h3.534v1.889h-3.534v3.726h-1.959v-3.726h-3.533v-1.889h3.533v-3.691h1.959Z"/><path class="e" d="M.757,17.34c.598.263,1.173-.017,1.712-.596.394-.417.627-.548.883-.435.269.118.347.422.159.849-.174.397-.472.725-.71.919l.686.527c.23-.176.556-.586.763-1.056.496-1.13.143-1.919-.547-2.222-.58-.255-1.109-.079-1.697.529-.435.443-.653.624-.915.509-.214-.094-.311-.37-.134-.773s.422-.645.574-.775l-.66-.538c-.217.196-.465.495-.669.959-.427.971-.147,1.793.556,2.102Z"/><path class="e" d="M6.22,13.862l-1.289-.96c.067-.067.143-.159.223-.266.359-.481.548-.981.493-1.455-.044-.365-.256-.706-.609-.969s-.768-.331-1.122-.236c-.372.097-.735.384-1.11.887-.37.498-.601.875-.746,1.158l3.558,2.65.602-.808ZM4.523,12.175c-.088.118-.157.199-.225.257l-1.065-.793c.028-.071.096-.195.219-.361.303-.407.672-.489,1.004-.242.369.275.389.706.067,1.139Z"/><polygon class="e" points="10.681 9.277 10.141 8.642 8.732 9.838 8.041 9.024 9.303 7.953 8.767 7.323 7.506 8.393 6.902 7.681 8.239 6.546 7.7 5.91 5.584 7.706 8.494 11.134 10.681 9.277"/><polygon class="e" points="14.331 7.203 13.931 6.449 12.352 7.287 10.645 4.069 9.744 4.547 11.85 8.519 14.331 7.203"/><polygon class="e" points="18.201 3.356 18.032 2.343 19.736 2.058 19.599 1.236 16.888 1.688 17.628 6.123 18.635 5.955 18.337 4.172 19.93 3.906 19.793 3.09 18.201 3.356"/><path class="e" d="M24.811,1.028c.259.022.463-.169.483-.415.022-.259-.148-.474-.407-.496s-.469.162-.49.421c-.021.246.148.468.414.49Z"/><path class="e" d="M24.13,1.158c-1.323-.111-2.264.822-2.377,2.165-.107,1.276.587,2.345,1.917,2.457,1.309.11,2.275-.707,2.398-2.176.103-1.237-.562-2.33-1.938-2.445ZM24.995,3.547c-.073.871-.52,1.49-1.204,1.432-.678-.057-1.038-.709-.965-1.587.073-.871.526-1.489,1.211-1.432.698.058,1.026.782.959,1.586Z"/><path class="e" d="M23.434.913c.253.021.456-.17.477-.415.022-.259-.154-.475-.4-.496-.259-.022-.476.161-.497.421-.021.246.161.469.421.49Z"/><path class="e" d="M28.99,5.025c.388.145.518.354.444.922-.06.566-.082.948-.055,1.092l.981.348c-.024-.192.041-.792.078-1.317.032-.428-.031-.769-.284-.993l.007-.019c.411-.002.927-.237,1.119-.778.139-.39.105-.734-.075-1.025-.217-.346-.624-.597-1.252-.82-.509-.181-.981-.306-1.307-.365l-1.485,4.18.949.337.592-1.666.289.103ZM29.362,3.061c.074.012.212.04.445.123.438.163.633.451.494.841-.132.371-.499.509-.977.34l-.377-.134.415-1.169Z"/><path class="e" d="M36.107,10.763c.568.002,1.191-.247,1.749-.902.515-.604.65-1.216.519-1.783-.118-.53-.441-1.006-1.091-1.559-.391-.333-.783-.623-1.107-.819l-2.862,3.362c.171.19.434.457.835.799.671.571,1.34.895,1.956.902ZM36.483,6.914c.079.041.204.121.376.268.665.566.762,1.296.152,2.003-.696.818-1.482.815-2.178.213-.096-.082-.203-.173-.256-.244l1.906-2.24Z"/><rect class="e" x="37.007" y="11.277" width="4.495" height="1.021" transform="translate(1.019 26.548) rotate(-37.822)"/><path class="e" d="M39.442,14.986c-.177.548-.101,1.172.262,1.909.262.533.656,1.001.89,1.235l2.126-1.045-.739-1.503-.712.35.306.623-.844.415c-.071-.054-.178-.21-.281-.42-.368-.749-.133-1.511.699-1.92.874-.43,1.588-.067,1.962.694.218.443.275.757.289,1.025l.825-.168c-.001-.245-.097-.696-.353-1.217-.651-1.323-1.897-1.922-3.241-1.269-.596.286-1.023.748-1.187,1.29Z"/><path class="e" d="M7.024,38.032c.207-.157.253-.427.096-.634-.158-.207-.434-.24-.641-.083-.197.15-.248.423-.087.636.158.207.435.231.632.081Z"/><path class="e" d="M5.639,36.21c-.197.149-.24.434-.083.641.153.202.431.225.628.076.207-.158.249-.433.1-.629-.157-.207-.438-.245-.645-.088Z"/><path class="e" d="M5.84,37.532c-.803-1.057-2.126-1.133-3.199-.317-1.02.775-1.35,2.006-.542,3.069.795,1.047,2.048,1.217,3.222.325.988-.751,1.355-1.977.519-3.077ZM4.644,39.774c-.696.529-1.455.611-1.87.064-.412-.542-.168-1.247.533-1.78.696-.529,1.459-.606,1.875-.059.424.558.106,1.286-.537,1.774Z"/><path class="e" d="M10.269,41.93l-1.633,1.163c-.437.311-.875.646-1.297,1.003l-.016-.012c.26-.508.465-.999.672-1.515l.737-1.836-.879-.685-1.626,4.433.937.73,3.958-2.618-.853-.664Z"/><polygon class="e" points="10.437 47.301 13.044 48.497 13.392 47.739 11.713 46.969 12.157 45.999 13.661 46.688 14.006 45.936 12.502 45.247 12.891 44.398 14.486 45.129 14.834 44.371 12.311 43.214 10.437 47.301"/><path class="e" d="M17.729,45.148c-.529-.111-1.013-.173-1.344-.188l-.914,4.34.986.208.364-1.729.3.063c.403.092.561.282.563.855.016.569.045.95.091,1.089l1.018.214c-.049-.188-.065-.791-.098-1.316-.026-.428-.134-.758-.414-.946l.004-.02c.407-.057.887-.359,1.005-.92.085-.405.006-.742-.211-1.006-.261-.314-.697-.508-1.35-.645ZM18.286,46.676c-.081.385-.427.571-.923.467l-.392-.083.256-1.214c.075.002.216.011.457.062.456.103.687.363.602.767Z"/><polygon class="e" points="24.667 45.656 23.599 46.335 23.864 47.067 24.632 46.569 24.645 46.567 25.095 49.973 26.067 49.844 25.5 45.546 24.667 45.656"/><path class="e" d="M30.732,46.142l-.007-.019c.327-.347.388-.761.26-1.111-.182-.494-.779-.9-1.73-.551-.814.299-1.266.984-1.013,1.672.131.357.447.617.915.673l.007.019c-.373.357-.531.799-.351,1.287.202.551.892.958,1.925.579.945-.347,1.383-1.07,1.112-1.809-.193-.526-.668-.735-1.118-.74ZM29.126,45.774c-.094-.257-.003-.532.322-.651.351-.129.587.069.679.319.094.257-.026.528-.222.671-.362.02-.677-.064-.778-.339ZM30.534,48.02c-.357.131-.683-.061-.785-.358-.108-.294-.009-.586.271-.789.412-.038.753.078.884.435.106.288-.033.588-.371.712Z"/><path class="e" d="M35.359,39.724c-.236-.281-.618-.343-1.007-.017-.383.322-.396.732-.164,1.008.227.271.631.306,1.004-.007.368-.309.398-.708.167-.984ZM34.963,40.457c-.138.116-.314.072-.412-.046-.107-.128-.139-.31.01-.435.148-.124.329-.075.436.052.111.133.115.304-.033.428Z"/><path class="e" d="M34.791,41.289l1.836,4.327.807-.677-.496-1.09.987-.827,1.007.661.838-.703-3.957-2.549-1.022.857ZM37.323,42.534l-.762.639-.408-.902c-.111-.247-.278-.55-.399-.797l.01-.009c.222.162.498.366.731.519l.828.551Z"/><path class="e" d="M41.19,37.866l-.016-.012c.114-.396.034-.956-.43-1.293-.335-.243-.675-.308-1.004-.218-.393.11-.749.429-1.14.969-.317.437-.571.855-.72,1.151l3.591,2.606.592-.815-1.431-1.038.18-.248c.248-.331.486-.397,1.01-.166.527.217.886.346,1.032.361l.611-.842c-.191-.032-.749-.263-1.242-.447-.401-.151-.746-.187-1.033-.008ZM40.272,38.461l-.235.324-1.004-.729c.032-.067.098-.192.243-.392.28-.374.612-.479.946-.237.318.231.348.623.05,1.034Z"/><circle class="e" cx="1.408" cy="26.164" r="1.271"/><circle class="e" cx="42.864" cy="26.164" r="1.271"/></g></svg>