<svg width="121" height="28" viewBox="0 0 121 28" fill="none" xmlns="http://www.w3.org/2000/svg">
<g clip-path="url(#clip0_5295_78)">
<path d="M6.93723 1.99947C9.96928 1.99947 11.9057 3.07147 13.1642 5.63847L10.6918 6.84971C9.96928 5.31004 9.06019 4.68208 7.02919 4.68208C5.0954 4.68208 4.11537 5.31004 4.11537 6.57121C4.11537 10.2785 13.2352 7.4803 13.2352 14.0095C13.2352 17.2044 10.994 19.0016 6.96087 19.0016C3.69498 19.0016 1.78221 17.9743 0.313477 15.3626L2.94091 14.0804C3.72914 15.5728 4.94564 16.319 7.11589 16.319C9.23886 16.319 10.2872 15.6201 10.2872 14.217C10.2872 10.1366 1.16739 13.1661 1.16739 6.75512C1.17527 3.7257 3.25094 1.99947 6.93723 1.99947ZM26.191 16.9154C25.119 18.2291 23.7896 19.0173 21.8085 19.0173C18.3797 19.0173 16.7691 17.0336 16.7691 14.0016V8.10825H14.4385V5.49658H16.7743V2.23332H19.6645V5.49658H24.7013V8.10825H19.6645V14.0095C19.6645 15.4782 20.4527 16.4109 21.8794 16.4109C22.3113 16.4294 22.7409 16.3386 23.1285 16.1471C23.5161 15.9557 23.8492 15.6696 24.097 15.3153L26.191 16.9154ZM26.5142 12.1571C26.5142 7.69049 28.6608 5.27851 32.5783 5.27851C36.4958 5.27851 38.6424 7.70363 38.6424 12.1571C38.6424 16.6106 36.4958 19.0173 32.5783 19.0173C28.6608 19.0173 26.5142 16.5765 26.5142 12.144V12.1571ZM28.1931 2.23595C28.1931 1.25854 28.7528 0.512352 29.8484 0.512352C30.9441 0.512352 31.5063 1.25854 31.5063 2.23595C31.5063 3.21335 30.9467 3.93852 29.8484 3.93852C28.7502 3.93852 28.1931 3.17919 28.1931 2.22281V2.23595ZM35.726 12.1571C35.726 9.33526 34.7249 7.98213 32.5731 7.98213C30.4212 7.98213 29.4201 9.33526 29.4201 12.1571C29.4201 14.979 30.4212 16.3321 32.5731 16.3321C34.7249 16.3321 35.726 14.9658 35.726 12.144V12.1571ZM33.6503 2.23595C33.6503 1.25854 34.21 0.512352 35.3082 0.512352C36.4065 0.512352 36.9635 1.25854 36.9635 2.23595C36.9635 3.21335 36.4039 3.93852 35.3082 3.93852C34.2126 3.93852 33.6503 3.17919 33.6503 2.22281V2.23595ZM53.8211 16.2717V18.7677C53.3646 18.9318 52.882 19.011 52.397 19.0016C51.0439 19.0016 50.1112 18.6048 49.7381 17.3226C48.8999 18.463 47.6177 19.0016 46.0308 19.0016C42.6729 19.0016 40.5263 16.5528 40.5263 12.1203C40.5263 7.68786 42.6729 5.24173 46.0308 5.24173C47.4995 5.24173 48.6897 5.70678 49.5279 6.66316V0H52.418V15.6411C52.418 16.1797 52.6992 16.3663 53.1169 16.3663C53.355 16.3685 53.5921 16.3366 53.8211 16.2717ZM49.5279 12.9138V11.3741C49.5279 9.25118 48.5505 7.95849 46.4958 7.95849C44.4412 7.95849 43.4427 9.31161 43.4427 12.1335C43.4427 14.9553 44.4438 16.3085 46.4958 16.3085C48.5478 16.3085 49.5226 15.0368 49.5226 12.9138H49.5279ZM64.5936 2.08355C64.5936 0.893328 65.2688 0.00788197 66.5983 0.00788197C67.9278 0.00788197 68.603 0.893328 68.603 2.08355C68.603 3.27378 67.9278 4.13558 66.5983 4.13558C65.2688 4.13558 64.5936 3.25276 64.5936 2.08355ZM69.4438 16.2953V18.7914C68.9836 18.9543 68.4972 19.0309 68.0092 19.0173C66.191 19.0173 65.1427 18.3158 65.1427 15.6569V5.4887H68.0329V15.6569C68.0329 16.1955 68.314 16.382 68.7344 16.382C68.972 16.3869 69.2092 16.3577 69.4385 16.2953H69.4438ZM87.5494 2.08355C87.5494 0.893328 88.2273 0.00788197 89.5568 0.00788197C90.8863 0.00788197 91.5615 0.893328 91.5615 2.08355C91.5615 3.27378 90.8863 4.13558 89.5568 4.13558C88.2273 4.13558 87.5442 3.25276 87.5442 2.08355H87.5494ZM99.8983 16.4582C101.212 16.4582 102.208 15.9695 102.907 14.7556L105.271 15.9222C104.073 18.0925 102.184 19.0173 99.8274 19.0173C96.0281 19.0173 93.7659 16.7998 93.7659 12.1361C93.7659 7.33316 96.1437 5.25749 99.7827 5.25749C103.422 5.25749 105.426 7.35943 105.426 11.9732V13.0688H96.6088C96.819 15.4572 97.8463 16.4582 99.8983 16.4582ZM96.6324 10.7462H102.649C102.418 8.78613 101.53 7.82974 99.6645 7.82974C97.8463 7.82974 96.9109 8.77036 96.6324 10.7462ZM120.313 16.2953V18.7914C119.858 18.9554 119.376 19.0347 118.892 19.0252C117.071 19.0252 116.023 18.3237 116.023 15.6647V10.6726C116.023 8.97005 115.019 7.96637 113.34 7.96637C111.614 7.96637 110.658 9.01734 110.658 10.9065V18.7888H107.767V5.49396H110.424V6.93116C111.265 5.83552 112.57 5.27588 114.226 5.27588C117.281 5.27588 118.913 7.18602 118.913 10.7331V15.6752C118.913 16.2139 119.194 16.4004 119.615 16.4004C119.851 16.3989 120.087 16.3635 120.313 16.2953ZM88.2904 23.4235C88.2904 24.2249 87.6098 24.6768 86.8584 24.6768C86.5019 24.6673 86.1631 24.5199 85.9131 24.2655C85.6632 24.0112 85.5217 23.6698 85.5184 23.3132C85.5368 21.8287 87.1211 21.1219 88.2904 20.8224V23.4235ZM88.2904 18.1372C85.8284 18.4787 83.3902 19.6006 82.8647 22.6038C82.7573 23.1645 82.7743 23.742 82.9146 24.2955C83.0549 24.8489 83.315 25.3648 83.6766 25.8066C84.3702 26.6921 85.7785 27.1361 86.9083 27.1361C89.3807 27.1361 91.1805 25.7462 91.1805 23.2817V20.7593L95.7312 20.7383L93.892 17.9138L91.1963 17.9348V5.49658H84.7722V8.10825H88.2904V18.1372ZM61.1779 16.5344C59.7538 16.5344 59.1232 15.5991 59.1232 14.1303V0H56.3776V12.743C56.3776 15.1471 56.5641 15.8329 56.5641 15.8329C57.0318 17.8849 58.4769 19.1461 61.0308 19.1461C62.5757 19.1461 63.5767 18.6206 64.2415 17.9795L62.8253 15.7514C62.6344 16.0054 62.3848 16.2093 62.0979 16.3456C61.811 16.482 61.4953 16.5468 61.1779 16.5344ZM83.49 16.3899C83.0696 16.3899 82.7885 16.2034 82.7885 15.6647V10.7225C82.7885 7.17551 81.1569 5.26537 78.1012 5.26537C76.4459 5.26537 75.1401 5.82502 74.2993 6.92065V5.49658H71.6456V18.7914H74.5358V10.9091C74.5358 9.01997 75.4921 7.969 77.2184 7.969C78.8973 7.969 79.901 8.97268 79.901 10.6753V15.6674C79.901 18.3263 80.9519 19.0279 82.7675 19.0279C83.1763 19.0327 83.5836 18.9769 83.9761 18.8623V16.3479C83.8175 16.3772 83.6565 16.3913 83.4953 16.3899H83.49Z" fill="#C5004A"/>
</g>
<defs>
<clipPath id="clip0_5295_78">
<rect width="121" height="28" fill="white"/>
</clipPath>
</defs>
</svg>
